<?xml version="1.0" standalone="no"?><!DOCTYPE svg PUBLIC "-//W3C//DTD SVG 1.1//EN" "http://www.w3.org/Graphics/SVG/1.1/DTD/svg11.dtd"><svg t="1571301363757" class="icon" viewBox="0 0 1801 1024" version="1.1" xmlns="http://www.w3.org/2000/svg" p-id="6657" xmlns:xlink="http://www.w3.org/1999/xlink" width="351.7578125" height="200"><defs><style type="text/css"></style></defs><path d="M901.273408 170.666667C822.651685 80.539326 713.348315 19.17603 590.621723 0l0 368.179775c0 0 9.588015 153.40824 99.715356 287.640449 84.374532 124.644195 164.913858 172.58427 209.018727 191.7603-78.621723-90.127341-124.644195-207.101124-124.644195-335.580524C772.794007 381.602996 820.734082 262.71161 901.273408 170.666667" p-id="6658" fill="#ffffff"></path><path d="M602.127341 830.322097c-76.70412-93.962547-95.88015-186.007491-95.88015-186.007491s-17.258427 95.88015-78.621723 176.419476c-38.35206 49.857678-116.973783 111.220974-155.325843 139.985019 70.951311 38.35206 153.40824 59.445693 241.617978 59.445693 86.292135 0 166.831461-21.093633 237.782772-59.445693C707.595506 928.11985 630.891386 864.838951 602.127341 830.322097" p-id="6659" fill="#ffffff"></path><path d="M421.872659 375.850187l0-373.932584C182.172285 46.022472 0 255.041199 0 508.164794 0 636.644195 47.940075 753.617978 126.561798 843.745318c42.187266-24.928839 130.397004-86.292135 187.925094-170.666667C402.696629 544.599251 421.872659 375.850187 421.872659 375.850187" p-id="6660" fill="#ffffff"></path><path d="M1363.41573 3.835206l0 368.179775c0 0 9.588015 153.40824 99.715356 287.640449 84.374532 126.561798 166.831461 174.501873 209.018727 191.7603 80.539326-90.127341 128.479401-209.018727 128.479401-339.41573C1798.71161 253.123596 1610.786517 40.269663 1363.41573 3.835206" p-id="6661" fill="#ffffff"></path><path d="M1374.921348 834.157303c-76.70412-93.962547-95.88015-186.007491-95.88015-186.007491s-17.258427 95.88015-78.621723 176.419476c-38.35206 49.857678-116.973783 111.220974-155.325843 139.985019 70.951311 38.35206 153.40824 59.445693 241.617978 59.445693 86.292135 0 166.831461-21.093633 237.782772-59.445693C1480.389513 930.037453 1403.685393 868.674157 1374.921348 834.157303" p-id="6662" fill="#ffffff"></path><path d="M1194.666667 379.685393l0-373.932584c-115.05618 21.093633-218.606742 80.539326-293.393258 164.913858 78.621723 90.127341 124.644195 207.101124 124.644195 335.580524 0 130.397004-47.940075 249.28839-128.479401 339.41573 0 0 0 0 0 0 0 0 0 0 0 0 42.187266-24.928839 130.397004-86.292135 187.925094-170.666667C1175.490637 546.516854 1194.666667 379.685393 1194.666667 379.685393" p-id="6663" fill="#ffffff"></path></svg>