<?xml version="1.0" standalone="no"?><!DOCTYPE svg PUBLIC "-//W3C//DTD SVG 1.1//EN" "http://www.w3.org/Graphics/SVG/1.1/DTD/svg11.dtd"><svg t="1571301468730" class="icon" viewBox="0 0 1024 1024" version="1.1" xmlns="http://www.w3.org/2000/svg" p-id="8429" xmlns:xlink="http://www.w3.org/1999/xlink" width="200" height="200"><defs><style type="text/css"></style></defs><path d="M899.446033 529.374646C827.919075 737.859234 598.5568 849.826272 388.088831 778.61248 359.382011 768.904355 331.364154 755.855801 305.684599 740.301923 288.773672 729.800447 284.076192 708.025018 293.972216 691.427257 304.745103 674.599841 326.520531 669.317786 343.222681 679.735752 364.371778 692.721673 387.316357 703.390172 411.137799 711.448959 584.255584 770.03175 772.822858 677.919393 831.656181 506.430067 890.53126 334.878109 797.81345 147.688762 624.695665 89.105971 451.995433 30.669323 263.24026 122.656414 204.386059 294.166618 187.287232 343.98078 182.297465 395.778323 190.063965 447.72201 193.237373 467.159137 179.750387 485.239214 159.728685 487.828048 140.020148 490.980578 122.190603 477.660614 119.225971 458.160854 109.831012 395.861834 116.156951 331.015736 136.637962 271.326428 208.311064 62.507797 437.610706-49.500997 647.890776 21.650162 858.337866 92.884832 971.119134 320.618648 899.446033 529.374646ZM389.153594 418.430614C384.497869 401.394421 387.024069 382.646258 391.846815 364.336526 410.574101 293.456776 484.126194 251.137704 555.945439 269.384803 628.161361 287.757168 670.918865 359.701679 652.212457 430.539673 633.422538 501.753465 560.434142 544.281315 488.218221 525.929827 460.492652 518.873169 437.234908 503.757723 419.802039 483.861287 388.318486 503.528069 295.600676 552.36098 228.123989 628.585417 147.786648 754.791039 152.985192 958.870434 152.985192 958.870434 147.202072 1005.532066 128.474787 1003.903607 112.503356 1002.504801 101.229404 1001.52355 90.644417 996.262373 88.389626 980.792006 81.04068 938.932243 81.291213 704.914243 191.274871 573.781487 240.170415 514.948164 346.437845 451.145951 389.153594 418.430614Z" p-id="8430" fill="#ffffff"></path></svg>