<?xml version="1.0" standalone="no"?><!DOCTYPE svg PUBLIC "-//W3C//DTD SVG 1.1//EN" "http://www.w3.org/Graphics/SVG/1.1/DTD/svg11.dtd"><svg t="1571301262019" class="icon" viewBox="0 0 1024 1024" version="1.1" xmlns="http://www.w3.org/2000/svg" p-id="4202" xmlns:xlink="http://www.w3.org/1999/xlink" width="200" height="200"><defs><style type="text/css"></style></defs><path d="M393.652592 545.904181c-93.334735 0-164.234505 72.39482-164.234505 150.633742S303.809377 838.708923 393.652592 830.003658c89.892333-8.496511 159.151743-79.450517 159.151743-157.694555C552.805358 594.071204 486.944348 545.904181 393.652592 545.904181zM339.516624 761.330602c-31.908734 3.119037-58.301847-19.481703-58.301847-47.38317 0-27.785833 25.177426-53.324486 58.301847-53.324486 33.158191 0 56.416917 17.014512 56.416917 44.806485C395.933541 733.192751 371.376239 758.288313 339.516624 761.330602zM424.338475 676.694993c-12.986779 1.255597-23.740704-7.92039-23.740704-19.169595 0-11.330046 10.217712-21.816888 23.740704-21.816888 13.397125 0 22.902616 7.028067 22.902616 18.302855C447.241091 665.260569 437.242366 675.483398 424.338475 676.694993z" p-id="4203" fill="#ffffff"></path><path d="M992.855676 240.36644c0 0 54.537104 98.870822 17.935488 219.487923-23.362081 37.833677-76.287477 18.905582-71.199599-25.64303 1.206478-10.650571 3.316535-26.327622 4.560876-32.779567 20.567431-116.833939-88.00638-235.011478-198.379163-225.095641-15.233959 1.38658-34.139541 3.535523-47.629787 2.016937-20.928658-2.330068-34.023908-20.917402-30.203906-43.49563 8.151657-47.749514 81.428567-39.198767 115.919103-35.558867C871.866091 108.638279 955.849854 160.028717 992.855676 240.36644L992.855676 240.36644z" p-id="4204" fill="#ffffff"></path><path d="M866.082364 427.079912c-23.116487 16.279778-57.085136 6.424316-50.046836-52.442396 4.084015-34.95-16.077164-55.407937-38.315654-63.635319-11.971659-4.587482-27.868721-2.599198-41.084721-5.454222-42.355667-9.466606-37.390585-35.871999-29.354562-50.814316 8.28878-15.864316 40.130999-16.915251 57.929364-16.779152 63.860447 0.915859 132.517129 57.183374 120.106472 148.561547C882.889145 404.292929 881.552707 415.930991 866.082364 427.079912L866.082364 427.079912z" p-id="4205" fill="#ffffff"></path><path d="M778.125103 504.084727c-50.402947-12.662391-21.054525-33.56342-8.375761-69.243037 12.585643-35.81674-15.951297-92.402503-76.80834-100.921527-60.900022-8.419763-124.995829 21.181415-141.748375 23.14821-16.8559 2.15406-69.298296 35.658128-39.866986-33.689287 0 0 19.179828-67.779709-31.502481-97.80249-56.783261-20.874423-155.578358 13.769608-155.578358 13.769608s-199.545732 94.573959-313.01504 340.384387C-49.928133 776.777409 165.026544 896.682289 325.763388 920.883481c161.179936 24.590048 399.848711-15.495926 509.184885-148.381445C915.269623 674.9083 930.848437 542.237675 778.125103 504.084727zM438.826444 860.963787c-167.112042 21.054525-313.865407-51.417043-327.656505-161.805176C97.323583 588.879971 221.580584 482.455103 388.686487 461.504956c167.079296-20.999266 313.793776 51.417043 327.640132 161.701822C730.167858 733.594911 605.915973 840.046385 438.826444 860.963787z" p-id="4206" fill="#ffffff"></path></svg>