<?xml version="1.0" standalone="no"?><!DOCTYPE svg PUBLIC "-//W3C//DTD SVG 1.1//EN" "http://www.w3.org/Graphics/SVG/1.1/DTD/svg11.dtd"><svg t="1571208881884" class="icon" viewBox="0 0 1206 1024" version="1.1" xmlns="http://www.w3.org/2000/svg" p-id="3049" xmlns:xlink="http://www.w3.org/1999/xlink" width="235.546875" height="200"><defs><style type="text/css"></style></defs><path d="M751.911822 5.688889l454.428445 500.076089-454.428445 500.098844H328.954311l454.428445-500.098844L328.954311 5.688889h422.957511z m-15.109689 34.133333H406.095644l423.412623 465.942756-423.412623 465.965511h330.706489l423.435378-465.965511L736.802133 39.822222zM380.7232 185.184711v244.804267l235.770311 75.776-235.747555 75.776v244.827022l-144.907378-198.064356L0.8192 704.034133l145.430756-198.2464-145.749334-198.269155 235.337956 75.730489 144.884622-198.064356z m-34.133333 104.493511l-97.735111 133.620622-158.333156-50.972444 98.076444 133.438578-97.8944 133.438578 158.151112-50.972445 97.735111 133.643378v-165.205333l158.378666-50.904178-158.378666-50.904178v-165.205333z" fill="#2c2c2c" p-id="3050"></path></svg>