<?xml version="1.0" standalone="no"?><!DOCTYPE svg PUBLIC "-//W3C//DTD SVG 1.1//EN" "http://www.w3.org/Graphics/SVG/1.1/DTD/svg11.dtd"><svg t="1571210367951" class="icon" viewBox="0 0 1024 1024" version="1.1" xmlns="http://www.w3.org/2000/svg" p-id="6352" xmlns:xlink="http://www.w3.org/1999/xlink" width="200" height="200"><defs><style type="text/css"></style></defs><path d="M352 448m-44.8 0a0.7 0.7 0 1 0 89.6 0 0.7 0.7 0 1 0-89.6 0Z" p-id="6353" fill="#ffffff"></path><path d="M512 448m-44.8 0a0.7 0.7 0 1 0 89.6 0 0.7 0.7 0 1 0-89.6 0Z" p-id="6354" fill="#ffffff"></path><path d="M672 448m-44.8 0a0.7 0.7 0 1 0 89.6 0 0.7 0.7 0 1 0-89.6 0Z" p-id="6355" fill="#ffffff"></path><path d="M512 140.8C224 140.8 0 275.2 0 448c0 134.4 147.2 256 352 294.4l0 160c0 12.8 6.4 25.6 19.2 32 6.4 0 12.8 6.4 19.2 6.4 6.4 0 19.2 0 25.6-6.4l230.4-185.6C870.4 716.8 1024 588.8 1024 448 1024 275.2 800 140.8 512 140.8zM627.2 678.4c-6.4 0-12.8 6.4-19.2 6.4l-179.2 140.8 0-115.2c0-19.2-12.8-32-32-38.4-185.6-25.6-320-121.6-320-230.4 0-128 198.4-236.8 435.2-236.8S947.2 320 947.2 448C947.2 556.8 812.8 652.8 627.2 678.4z" p-id="6356" fill="#ffffff"></path></svg>