<?xml version="1.0" standalone="no"?><!DOCTYPE svg PUBLIC "-//W3C//DTD SVG 1.1//EN" "http://www.w3.org/Graphics/SVG/1.1/DTD/svg11.dtd"><svg t="1571210429719" class="icon" viewBox="0 0 1024 1024" version="1.1" xmlns="http://www.w3.org/2000/svg" p-id="8006" xmlns:xlink="http://www.w3.org/1999/xlink" width="200" height="200"><defs><style type="text/css"></style></defs><path d="M662.755556 551.822222c45.511111-28.444444 176.355556-85.333333 176.355556-250.311111 0-159.288889-130.844444-267.377778-244.622222-290.133333-113.777778-22.755556-227.555556-5.688889-318.577778 85.333333C201.955556 182.044444 184.888889 244.622222 184.888889 398.222222l176.355556 0L361.244444 358.4c0-79.644444 5.688889-159.288889 119.466667-187.733333 62.577778-11.377778 119.466667 5.688889 153.6 39.822222 39.822222 39.822222 39.822222 125.155556-22.755556 170.666667L509.155556 443.733333c-56.888889 39.822222-73.955556 73.955556-73.955556 136.533333l0 199.111111 176.355556 0 0-136.533333C600.177778 614.4 622.933333 580.266667 662.755556 551.822222L662.755556 551.822222 662.755556 551.822222 662.755556 551.822222 662.755556 551.822222z" p-id="8007" fill="#ffffff"></path><path d="M514.844444 847.644444c-51.2 0-85.333333 39.822222-85.333333 85.333333 0 51.2 39.822222 85.333333 85.333333 85.333333 51.2 0 85.333333-39.822222 85.333333-85.333333C600.177778 893.155556 566.044444 847.644444 514.844444 847.644444L514.844444 847.644444 514.844444 847.644444 514.844444 847.644444 514.844444 847.644444z" p-id="8008" fill="#ffffff"></path></svg>