<?xml version="1.0" standalone="no"?><!DOCTYPE svg PUBLIC "-//W3C//DTD SVG 1.1//EN" "http://www.w3.org/Graphics/SVG/1.1/DTD/svg11.dtd"><svg t="1571301300004" class="icon" viewBox="0 0 1024 1024" version="1.1" xmlns="http://www.w3.org/2000/svg" p-id="5166" xmlns:xlink="http://www.w3.org/1999/xlink" width="200" height="200"><defs><style type="text/css"></style></defs><path d="M782.985808 577.770959c-21.400403 0-38.829354-17.546631-38.829354-39.326681 0-21.657252 17.428951-39.203884 38.829354-39.203884 21.402449 0 38.82833 17.546631 38.82833 39.203884C821.814138 560.224328 804.38928 577.770959 782.985808 577.770959M583.263044 577.770959c-21.403472 0-38.829354-17.546631-38.829354-39.326681 0-21.657252 17.425881-39.203884 38.829354-39.203884 21.398356 0 38.823214 17.546631 38.823214 39.203884C622.086258 560.224328 604.662423 577.770959 583.263044 577.770959M961.309192 633.633245c0-127.049604-113.111151-231.076866-256.473279-240.045121-6.707772-0.366344-13.430894-0.620124-20.148899-0.620124-152.818501 0-276.637528 107.766422-276.637528 240.665245 0 20.041452 2.866281 39.449477 8.212032 57.990762 29.737278 104.915491 138.622174 182.688809 268.425496 182.688809 44.169989 0 85.853343-8.967232 122.808-25.02086l62.096267 42.436508c0 0 16.557094 11.571546 14.941294-10.705829l-17.546631-66.447365C924.852886 770.520915 961.309192 705.808054 961.309192 633.633245M261.089413 362.976942c-21.413706 0-38.82833-17.536398-38.82833-39.193651 0-21.774933 17.414625-39.321564 38.82833-39.321564 21.521153 0 38.824237 17.546631 38.824237 39.321564C299.912627 345.43952 282.610566 362.976942 261.089413 362.976942M505.606383 284.460704c21.413706 0 38.82833 17.546631 38.82833 39.321564 0 21.657252-17.414625 39.193651-38.82833 39.193651-21.521153 0-38.829354-17.536398-38.829354-39.193651C466.777029 302.007335 484.08523 284.460704 505.606383 284.460704M684.687014 372.926548c5.965875 0 11.809977 0.258896 17.669428 0.512676-22.775726-134.528949-155.929352-237.823524-316.827879-237.823524-176.830381 0-320.192509 124.82903-320.192509 278.629905 0 85.745896 44.550659 162.396647 114.489544 213.543537l-23.64963 89.223091c0 0-8.080026 29.615505 22.531156 16.311501L266.933515 673.082722c36.709063 12.81998 76.655867 19.918655 118.595049 19.918655 3.607154 0 7.084349-0.25378 10.56973-0.25378-5.102205-19.044752-7.836479-38.82833-7.836479-59.109236C388.261814 489.910912 521.283434 372.926548 684.687014 372.926548" p-id="5167" fill="#464646"></path></svg>