<?xml version="1.0" standalone="no"?><!DOCTYPE svg PUBLIC "-//W3C//DTD SVG 1.1//EN" "http://www.w3.org/Graphics/SVG/1.1/DTD/svg11.dtd"><svg t="1571381530758" class="icon" viewBox="0 0 1171 1024" version="1.1" xmlns="http://www.w3.org/2000/svg" p-id="6298" xmlns:xlink="http://www.w3.org/1999/xlink" width="228.7109375" height="200"><defs><style type="text/css"></style></defs><path d="M1058.268 919.138c57.59-46.753 93.63-113.548 93.63-187.71 0-141.385-130.988-256-292.571-256-161.583 0-292.571 114.615-292.571 256 0 141.385 130.988 256 292.571 256 48.348 0 93.956-10.261 134.137-28.431l85.292 28.431-20.487-68.29zM1078.404 467.854c-10.048-239.678-235.277-431.282-511.649-431.282-282.77 0-512 200.577-512 448 0 127.642 61.006 242.814 158.896 324.414v0l-30.896 123.585 137.776-55.111c73.058 35.129 156.974 55.111 246.224 55.111 1.022 0 2.043-0.003 3.062-0.007-47.777-55.622-76.206-125.391-76.206-201.135 0-181.78 163.735-329.143 365.714-329.143 82.173 0 158.017 24.391 219.079 65.568v0z" p-id="6299" fill="#ffffff"></path></svg>